<?xml version="1.0" encoding="UTF-8"?>
<svg height="1757" width="699" xmlns="http://www.w3.org/2000/svg"><g stroke-width="4" stroke="black" stroke-linecap="round" font-family="Verdana" font-size="10"><rect x="481" width="50" height="1752" style="fill:rgb(200,200,200); stroke-width:0"></rect><rect x="381" width="50" height="1752" style="fill:rgb(200,200,200); stroke-width:0"></rect><rect x="281" width="50" height="1752" style="fill:rgb(200,200,200); stroke-width:0"></rect><rect x="181" width="50" height="1752" style="fill:rgb(200,200,200); stroke-width:0"></rect><rect x="81" width="50" height="1752" style="fill:rgb(200,200,200); stroke-width:0"></rect><rect x="-18" width="50" height="1752" style="fill:rgb(200,200,200); stroke-width:0"></rect><line x1="5" y1="235" x2="10" y2="235" stroke="rgb(102,102,102)"></line><line x1="10" y1="84" x2="10" y2="386" stroke="rgb(102,102,102)"></line><line x1="10" y1="84" x2="135" y2="84" stroke="rgb(93,92,172)"></line><line x1="135" y1="33" x2="135" y2="135" stroke="rgb(93,92,172)"></line><line x1="135" y1="33" x2="338" y2="33" stroke="rgb(91,94,174)"></line><line x1="338" y1="14" x2="338" y2="52" stroke="rgb(91,94,174)"></line><line x1="338" y1="14" x2="375" y2="14" stroke="rgb(86,102,182)"></line><line x1="375" y1="5" x2="375" y2="23" stroke="rgb(86,102,182)"></line><line x1="375" y1="5" x2="531" y2="5" stroke="rgb(82,110,188)"></line><line x1="375" y1="23" x2="435" y2="23" stroke="rgb(81,112,190)"></line><line x1="435" y1="17" x2="435" y2="29" stroke="rgb(81,112,190)"></line><line x1="435" y1="17" x2="531" y2="17" stroke="rgb(82,110,188)"></line><line x1="435" y1="29" x2="531" y2="29" stroke="rgb(82,109,188)"></line><line x1="338" y1="52" x2="385" y2="52" stroke="rgb(82,111,189)"></line><line x1="385" y1="41" x2="385" y2="63" stroke="rgb(82,111,189)"></line><line x1="385" y1="41" x2="531" y2="41" stroke="rgb(83,108,187)"></line><line x1="385" y1="63" x2="438" y2="63" stroke="rgb(77,121,197)"></line><line x1="438" y1="53" x2="438" y2="74" stroke="rgb(77,121,197)"></line><line x1="438" y1="53" x2="531" y2="53" stroke="rgb(87,100,180)"></line><line x1="438" y1="74" x2="483" y2="74" stroke="rgb(83,107,186)"></line><line x1="483" y1="65" x2="483" y2="83" stroke="rgb(83,107,186)"></line><line x1="483" y1="65" x2="531" y2="65" stroke="rgb(90,96,176)"></line><line x1="483" y1="83" x2="502" y2="83" stroke="rgb(99,85,165)"></line><line x1="502" y1="77" x2="502" y2="89" stroke="rgb(99,85,165)"></line><line x1="502" y1="77" x2="531" y2="77" stroke="rgb(86,102,182)"></line><line x1="502" y1="89" x2="531" y2="89" stroke="rgb(77,121,197)"></line><line x1="135" y1="135" x2="191" y2="135" stroke="rgb(88,99,179)"></line><line x1="191" y1="107" x2="191" y2="163" stroke="rgb(88,99,179)"></line><line x1="191" y1="107" x2="347" y2="107" stroke="rgb(89,97,177)"></line><line x1="347" y1="101" x2="347" y2="113" stroke="rgb(89,97,177)"></line><line x1="347" y1="101" x2="531" y2="101" stroke="rgb(87,100,180)"></line><line x1="347" y1="113" x2="531" y2="113" stroke="rgb(82,109,188)"></line><line x1="191" y1="163" x2="294" y2="163" stroke="rgb(90,96,176)"></line><line x1="294" y1="135" x2="294" y2="191" stroke="rgb(90,96,176)"></line><line x1="294" y1="135" x2="313" y2="135" stroke="rgb(77,138,197)"></line><line x1="313" y1="125" x2="313" y2="146" stroke="rgb(77,138,197)"></line><line x1="313" y1="125" x2="531" y2="125" stroke="rgb(88,99,179)"></line><line x1="313" y1="146" x2="385" y2="146" stroke="rgb(86,101,181)"></line><line x1="385" y1="137" x2="385" y2="155" stroke="rgb(86,101,181)"></line><line x1="385" y1="137" x2="531" y2="137" stroke="rgb(83,107,186)"></line><line x1="385" y1="155" x2="466" y2="155" stroke="rgb(86,101,181)"></line><line x1="466" y1="149" x2="466" y2="161" stroke="rgb(86,101,181)"></line><line x1="466" y1="149" x2="531" y2="149" stroke="rgb(83,107,186)"></line><line x1="466" y1="161" x2="531" y2="161" stroke="rgb(77,125,197)"></line><line x1="294" y1="191" x2="297" y2="191" stroke="rgb(93,169,161)"></line><line x1="297" y1="173" x2="297" y2="210" stroke="rgb(93,169,161)"></line><line x1="297" y1="173" x2="531" y2="173" stroke="rgb(83,107,186)"></line><line x1="297" y1="210" x2="335" y2="210" stroke="rgb(81,111,189)"></line><line x1="335" y1="191" x2="335" y2="229" stroke="rgb(81,111,189)"></line><line x1="335" y1="191" x2="378" y2="191" stroke="rgb(98,87,167)"></line><line x1="378" y1="185" x2="378" y2="197" stroke="rgb(98,87,167)"></line><line x1="378" y1="185" x2="531" y2="185" stroke="rgb(92,94,174)"></line><line x1="378" y1="197" x2="531" y2="197" stroke="rgb(86,102,182)"></line><line x1="335" y1="229" x2="363" y2="229" stroke="rgb(83,107,186)"></line><line x1="363" y1="215" x2="363" y2="243" stroke="rgb(83,107,186)"></line><line x1="363" y1="215" x2="397" y2="215" stroke="rgb(86,102,182)"></line><line x1="397" y1="209" x2="397" y2="221" stroke="rgb(86,102,182)"></line><line x1="397" y1="209" x2="531" y2="209" stroke="rgb(82,110,189)"></line><line x1="397" y1="221" x2="531" y2="221" stroke="rgb(78,118,195)"></line><line x1="363" y1="243" x2="410" y2="243" stroke="rgb(86,102,182)"></line><line x1="410" y1="233" x2="410" y2="254" stroke="rgb(86,102,182)"></line><line x1="410" y1="233" x2="531" y2="233" stroke="rgb(82,110,188)"></line><line x1="410" y1="254" x2="441" y2="254" stroke="rgb(82,109,187)"></line><line x1="441" y1="245" x2="441" y2="263" stroke="rgb(82,109,187)"></line><line x1="441" y1="245" x2="531" y2="245" stroke="rgb(80,114,191)"></line><line x1="441" y1="263" x2="485" y2="263" stroke="rgb(79,118,194)"></line><line x1="485" y1="257" x2="485" y2="269" stroke="rgb(79,118,194)"></line><line x1="485" y1="257" x2="531" y2="257" stroke="rgb(77,125,197)"></line><line x1="485" y1="269" x2="531" y2="269" stroke="rgb(95,90,170)"></line><line x1="10" y1="386" x2="44" y2="386" stroke="rgb(87,101,181)"></line><line x1="44" y1="304" x2="44" y2="469" stroke="rgb(87,101,181)"></line><line x1="44" y1="304" x2="78" y2="304" stroke="rgb(88,99,179)"></line><line x1="78" y1="281" x2="78" y2="327" stroke="rgb(88,99,179)"></line><line x1="78" y1="281" x2="531" y2="281" stroke="rgb(93,92,172)"></line><line x1="78" y1="327" x2="141" y2="327" stroke="rgb(85,102,182)"></line><line x1="141" y1="303" x2="141" y2="352" stroke="rgb(85,102,182)"></line><line x1="141" y1="303" x2="391" y2="303" stroke="rgb(91,95,175)"></line><line x1="391" y1="293" x2="391" y2="314" stroke="rgb(91,95,175)"></line><line x1="391" y1="293" x2="531" y2="293" stroke="rgb(82,110,188)"></line><line x1="391" y1="314" x2="425" y2="314" stroke="rgb(82,109,188)"></line><line x1="425" y1="305" x2="425" y2="323" stroke="rgb(82,109,188)"></line><line x1="425" y1="305" x2="531" y2="305" stroke="rgb(89,97,177)"></line><line x1="425" y1="323" x2="478" y2="323" stroke="rgb(84,104,184)"></line><line x1="478" y1="317" x2="478" y2="329" stroke="rgb(84,104,184)"></line><line x1="478" y1="317" x2="531" y2="317" stroke="rgb(80,114,192)"></line><line x1="478" y1="329" x2="531" y2="329" stroke="rgb(77,148,189)"></line><line x1="141" y1="352" x2="225" y2="352" stroke="rgb(92,94,174)"></line><line x1="225" y1="341" x2="225" y2="363" stroke="rgb(92,94,174)"></line><line x1="225" y1="341" x2="531" y2="341" stroke="rgb(92,93,173)"></line><line x1="225" y1="363" x2="244" y2="363" stroke="rgb(77,139,197)"></line><line x1="244" y1="353" x2="244" y2="374" stroke="rgb(77,139,197)"></line><line x1="244" y1="353" x2="531" y2="353" stroke="rgb(92,94,174)"></line><line x1="244" y1="374" x2="347" y2="374" stroke="rgb(89,97,177)"></line><line x1="347" y1="365" x2="347" y2="383" stroke="rgb(89,97,177)"></line><line x1="347" y1="365" x2="531" y2="365" stroke="rgb(89,97,177)"></line><line x1="347" y1="383" x2="435" y2="383" stroke="rgb(84,106,185)"></line><line x1="435" y1="377" x2="435" y2="389" stroke="rgb(84,106,185)"></line><line x1="435" y1="377" x2="531" y2="377" stroke="rgb(89,98,178)"></line><line x1="435" y1="389" x2="531" y2="389" stroke="rgb(83,107,186)"></line><line x1="44" y1="469" x2="66" y2="469" stroke="rgb(77,129,197)"></line><line x1="66" y1="407" x2="66" y2="532" stroke="rgb(77,129,197)"></line><line x1="66" y1="407" x2="410" y2="407" stroke="rgb(92,93,173)"></line><line x1="410" y1="401" x2="410" y2="413" stroke="rgb(92,93,173)"></line><line x1="410" y1="401" x2="531" y2="401" stroke="rgb(91,95,175)"></line><line x1="410" y1="413" x2="531" y2="413" stroke="rgb(84,106,185)"></line><line x1="66" y1="532" x2="85" y2="532" stroke="rgb(77,129,197)"></line><line x1="85" y1="431" x2="85" y2="634" stroke="rgb(77,129,197)"></line><line x1="85" y1="431" x2="235" y2="431" stroke="rgb(93,92,172)"></line><line x1="235" y1="425" x2="235" y2="437" stroke="rgb(93,92,172)"></line><line x1="235" y1="425" x2="531" y2="425" stroke="rgb(93,92,172)"></line><line x1="235" y1="437" x2="531" y2="437" stroke="rgb(92,93,173)"></line><line x1="85" y1="634" x2="119" y2="634" stroke="rgb(88,99,179)"></line><line x1="119" y1="468" x2="119" y2="801" stroke="rgb(88,99,179)"></line><line x1="119" y1="468" x2="360" y2="468" stroke="rgb(92,94,174)"></line><line x1="360" y1="455" x2="360" y2="482" stroke="rgb(92,94,174)"></line><line x1="360" y1="455" x2="434" y2="455" stroke="rgb(89,97,177)"></line><line x1="434" y1="449" x2="434" y2="461" stroke="rgb(89,97,177)"></line><line x1="434" y1="449" x2="531" y2="449" stroke="rgb(90,96,176)"></line><line x1="434" y1="461" x2="531" y2="461" stroke="rgb(90,97,177)"></line><line x1="360" y1="482" x2="413" y2="482" stroke="rgb(87,101,181)"></line><line x1="413" y1="473" x2="413" y2="491" stroke="rgb(87,101,181)"></line><line x1="413" y1="473" x2="531" y2="473" stroke="rgb(92,94,174)"></line><line x1="413" y1="491" x2="488" y2="491" stroke="rgb(87,100,180)"></line><line x1="488" y1="485" x2="488" y2="497" stroke="rgb(87,100,180)"></line><line x1="488" y1="485" x2="531" y2="485" stroke="rgb(93,92,172)"></line><line x1="488" y1="497" x2="531" y2="497" stroke="rgb(96,88,168)"></line><line x1="119" y1="801" x2="147" y2="801" stroke="rgb(80,113,191)"></line><line x1="147" y1="579" x2="147" y2="1023" stroke="rgb(80,113,191)"></line><line x1="147" y1="579" x2="313" y2="579" stroke="rgb(90,95,175)"></line><line x1="313" y1="536" x2="313" y2="623" stroke="rgb(90,95,175)"></line><line x1="313" y1="536" x2="344" y2="536" stroke="rgb(83,108,187)"></line><line x1="344" y1="518" x2="344" y2="555" stroke="rgb(83,108,187)"></line><line x1="344" y1="518" x2="388" y2="518" stroke="rgb(81,111,189)"></line><line x1="388" y1="509" x2="388" y2="527" stroke="rgb(81,111,189)"></line><line x1="388" y1="509" x2="531" y2="509" stroke="rgb(89,98,178)"></line><line x1="388" y1="527" x2="513" y2="527" stroke="rgb(86,102,182)"></line><line x1="513" y1="521" x2="513" y2="533" stroke="rgb(86,102,182)"></line><line x1="513" y1="521" x2="531" y2="521" stroke="rgb(92,168,163)"></line><line x1="513" y1="533" x2="531" y2="533" stroke="rgb(97,171,155)"></line><line x1="344" y1="555" x2="363" y2="555" stroke="rgb(77,139,197)"></line><line x1="363" y1="545" x2="363" y2="566" stroke="rgb(77,139,197)"></line><line x1="363" y1="545" x2="531" y2="545" stroke="rgb(91,95,175)"></line><line x1="363" y1="566" x2="419" y2="566" stroke="rgb(87,100,180)"></line><line x1="419" y1="557" x2="419" y2="575" stroke="rgb(87,100,180)"></line><line x1="419" y1="557" x2="531" y2="557" stroke="rgb(91,95,175)"></line><line x1="419" y1="575" x2="450" y2="575" stroke="rgb(82,110,189)"></line><line x1="450" y1="569" x2="450" y2="581" stroke="rgb(82,110,189)"></line><line x1="450" y1="569" x2="531" y2="569" stroke="rgb(88,98,178)"></line><line x1="450" y1="581" x2="531" y2="581" stroke="rgb(84,104,184)"></line><line x1="313" y1="623" x2="325" y2="623" stroke="rgb(78,119,196)"></line><line x1="325" y1="602" x2="325" y2="644" stroke="rgb(78,119,196)"></line><line x1="325" y1="602" x2="500" y2="602" stroke="rgb(88,98,178)"></line><line x1="500" y1="593" x2="500" y2="611" stroke="rgb(88,98,178)"></line><line x1="500" y1="593" x2="531" y2="593" stroke="rgb(86,161,174)"></line><line x1="500" y1="611" x2="516" y2="611" stroke="rgb(91,167,164)"></line><line x1="516" y1="605" x2="516" y2="617" stroke="rgb(91,167,164)"></line><line x1="516" y1="605" x2="531" y2="605" stroke="rgb(77,125,197)"></line><line x1="516" y1="617" x2="531" y2="617" stroke="rgb(77,134,197)"></line><line x1="325" y1="644" x2="347" y2="644" stroke="rgb(77,133,197)"></line><line x1="347" y1="629" x2="347" y2="659" stroke="rgb(77,133,197)"></line><line x1="347" y1="629" x2="531" y2="629" stroke="rgb(86,101,181)"></line><line x1="347" y1="659" x2="375" y2="659" stroke="rgb(77,122,197)"></line><line x1="375" y1="647" x2="375" y2="671" stroke="rgb(77,122,197)"></line><line x1="375" y1="647" x2="385" y2="647" stroke="rgb(87,162,172)"></line><line x1="385" y1="641" x2="385" y2="653" stroke="rgb(87,162,172)"></line><line x1="385" y1="641" x2="531" y2="641" stroke="rgb(89,97,177)"></line><line x1="385" y1="653" x2="531" y2="653" stroke="rgb(89,98,178)"></line><line x1="375" y1="671" x2="435" y2="671" stroke="rgb(80,116,193)"></line><line x1="435" y1="665" x2="435" y2="677" stroke="rgb(80,116,193)"></line><line x1="435" y1="665" x2="531" y2="665" stroke="rgb(90,97,177)"></line><line x1="435" y1="677" x2="531" y2="677" stroke="rgb(92,94,174)"></line><line x1="147" y1="1023" x2="160" y2="1023" stroke="rgb(79,152,185)"></line><line x1="160" y1="798" x2="160" y2="1248" stroke="rgb(79,152,185)"></line><line x1="160" y1="798" x2="166" y2="798" stroke="rgb(79,152,185)"></line><line x1="166" y1="726" x2="166" y2="871" stroke="rgb(79,152,185)"></line><line x1="166" y1="726" x2="300" y2="726" stroke="rgb(93,92,172)"></line><line x1="300" y1="695" x2="300" y2="757" stroke="rgb(93,92,172)"></line><line x1="300" y1="695" x2="410" y2="695" stroke="rgb(87,100,180)"></line><line x1="410" y1="689" x2="410" y2="701" stroke="rgb(87,100,180)"></line><line x1="410" y1="689" x2="531" y2="689" stroke="rgb(89,97,177)"></line><line x1="410" y1="701" x2="531" y2="701" stroke="rgb(89,98,178)"></line><line x1="300" y1="757" x2="360" y2="757" stroke="rgb(82,110,188)"></line><line x1="360" y1="731" x2="360" y2="783" stroke="rgb(82,110,188)"></line><line x1="360" y1="731" x2="400" y2="731" stroke="rgb(78,120,196)"></line><line x1="400" y1="719" x2="400" y2="743" stroke="rgb(78,120,196)"></line><line x1="400" y1="719" x2="410" y2="719" stroke="rgb(87,163,171)"></line><line x1="410" y1="713" x2="410" y2="725" stroke="rgb(87,163,171)"></line><line x1="410" y1="713" x2="531" y2="713" stroke="rgb(79,117,194)"></line><line x1="410" y1="725" x2="531" y2="725" stroke="rgb(92,93,173)"></line><line x1="400" y1="743" x2="454" y2="743" stroke="rgb(82,109,188)"></line><line x1="454" y1="737" x2="454" y2="749" stroke="rgb(82,109,188)"></line><line x1="454" y1="737" x2="531" y2="737" stroke="rgb(89,97,177)"></line><line x1="454" y1="749" x2="531" y2="749" stroke="rgb(86,102,182)"></line><line x1="360" y1="783" x2="366" y2="783" stroke="rgb(81,154,182)"></line><line x1="366" y1="767" x2="366" y2="800" stroke="rgb(81,154,182)"></line><line x1="366" y1="767" x2="438" y2="767" stroke="rgb(77,122,197)"></line><line x1="438" y1="761" x2="438" y2="773" stroke="rgb(77,122,197)"></line><line x1="438" y1="761" x2="531" y2="761" stroke="rgb(91,95,175)"></line><line x1="438" y1="773" x2="531" y2="773" stroke="rgb(81,112,190)"></line><line x1="366" y1="800" x2="391" y2="800" stroke="rgb(77,126,197)"></line><line x1="391" y1="785" x2="391" y2="815" stroke="rgb(77,126,197)"></line><line x1="391" y1="785" x2="531" y2="785" stroke="rgb(81,113,191)"></line><line x1="391" y1="815" x2="413" y2="815" stroke="rgb(77,132,197)"></line><line x1="413" y1="803" x2="413" y2="827" stroke="rgb(77,132,197)"></line><line x1="413" y1="803" x2="435" y2="803" stroke="rgb(77,124,197)"></line><line x1="435" y1="797" x2="435" y2="809" stroke="rgb(77,124,197)"></line><line x1="435" y1="797" x2="531" y2="797" stroke="rgb(87,100,180)"></line><line x1="435" y1="809" x2="531" y2="809" stroke="rgb(91,95,175)"></line><line x1="413" y1="827" x2="491" y2="827" stroke="rgb(84,105,184)"></line><line x1="491" y1="821" x2="491" y2="833" stroke="rgb(84,105,184)"></line><line x1="491" y1="821" x2="531" y2="821" stroke="rgb(77,134,197)"></line><line x1="491" y1="833" x2="531" y2="833" stroke="rgb(83,157,179)"></line><line x1="166" y1="871" x2="169" y2="871" stroke="rgb(93,169,161)"></line><line x1="169" y1="845" x2="169" y2="898" stroke="rgb(93,169,161)"></line><line x1="169" y1="845" x2="531" y2="845" stroke="rgb(89,97,177)"></line><line x1="169" y1="898" x2="188" y2="898" stroke="rgb(77,138,197)"></line><line x1="188" y1="866" x2="188" y2="931" stroke="rgb(77,138,197)"></line><line x1="188" y1="866" x2="378" y2="866" stroke="rgb(89,97,177)"></line><line x1="378" y1="857" x2="378" y2="875" stroke="rgb(89,97,177)"></line><line x1="378" y1="857" x2="531" y2="857" stroke="rgb(89,98,178)"></line><line x1="378" y1="875" x2="415" y2="875" stroke="rgb(77,121,197)"></line><line x1="415" y1="869" x2="415" y2="881" stroke="rgb(77,121,197)"></line><line x1="415" y1="869" x2="531" y2="869" stroke="rgb(89,97,177)"></line><line x1="415" y1="881" x2="531" y2="881" stroke="rgb(88,98,178)"></line><line x1="188" y1="931" x2="191" y2="931" stroke="rgb(93,169,161)"></line><line x1="191" y1="903" x2="191" y2="959" stroke="rgb(93,169,161)"></line><line x1="191" y1="903" x2="350" y2="903" stroke="rgb(89,97,177)"></line><line x1="350" y1="893" x2="350" y2="914" stroke="rgb(89,97,177)"></line><line x1="350" y1="893" x2="531" y2="893" stroke="rgb(88,99,179)"></line><line x1="350" y1="914" x2="397" y2="914" stroke="rgb(82,109,188)"></line><line x1="397" y1="905" x2="397" y2="923" stroke="rgb(82,109,188)"></line><line x1="397" y1="905" x2="531" y2="905" stroke="rgb(89,97,177)"></line><line x1="397" y1="923" x2="435" y2="923" stroke="rgb(80,115,193)"></line><line x1="435" y1="917" x2="435" y2="929" stroke="rgb(80,115,193)"></line><line x1="435" y1="917" x2="531" y2="917" stroke="rgb(93,92,172)"></line><line x1="435" y1="929" x2="531" y2="929" stroke="rgb(84,105,185)"></line><line x1="191" y1="959" x2="194" y2="959" stroke="rgb(93,169,161)"></line><line x1="194" y1="941" x2="194" y2="977" stroke="rgb(93,169,161)"></line><line x1="194" y1="941" x2="531" y2="941" stroke="rgb(89,97,177)"></line><line x1="194" y1="977" x2="203" y2="977" stroke="rgb(77,135,197)"></line><line x1="203" y1="953" x2="203" y2="1001" stroke="rgb(77,135,197)"></line><line x1="203" y1="953" x2="531" y2="953" stroke="rgb(85,103,183)"></line><line x1="203" y1="1001" x2="216" y2="1001" stroke="rgb(80,153,184)"></line><line x1="216" y1="971" x2="216" y2="1032" stroke="rgb(80,153,184)"></line><line x1="216" y1="971" x2="425" y2="971" stroke="rgb(86,102,182)"></line><line x1="425" y1="965" x2="425" y2="977" stroke="rgb(86,102,182)"></line><line x1="425" y1="965" x2="531" y2="965" stroke="rgb(93,92,172)"></line><line x1="425" y1="977" x2="531" y2="977" stroke="rgb(92,93,173)"></line><line x1="216" y1="1032" x2="235" y2="1032" stroke="rgb(77,134,197)"></line><line x1="235" y1="1000" x2="235" y2="1064" stroke="rgb(77,134,197)"></line><line x1="235" y1="1000" x2="250" y2="1000" stroke="rgb(84,105,185)"></line><line x1="250" y1="989" x2="250" y2="1011" stroke="rgb(84,105,185)"></line><line x1="250" y1="989" x2="531" y2="989" stroke="rgb(84,104,184)"></line><line x1="250" y1="1011" x2="278" y2="1011" stroke="rgb(81,112,190)"></line><line x1="278" y1="1001" x2="278" y2="1022" stroke="rgb(81,112,190)"></line><line x1="278" y1="1001" x2="531" y2="1001" stroke="rgb(89,98,178)"></line><line x1="278" y1="1022" x2="301" y2="1022" stroke="rgb(79,118,194)"></line><line x1="301" y1="1013" x2="301" y2="1031" stroke="rgb(79,118,194)"></line><line x1="301" y1="1013" x2="531" y2="1013" stroke="rgb(84,105,185)"></line><line x1="301" y1="1031" x2="514" y2="1031" stroke="rgb(84,105,185)"></line><line x1="514" y1="1025" x2="514" y2="1037" stroke="rgb(84,105,185)"></line><line x1="514" y1="1025" x2="531" y2="1025" stroke="rgb(78,119,195)"></line><line x1="514" y1="1037" x2="531" y2="1037" stroke="rgb(78,119,196)"></line><line x1="235" y1="1064" x2="300" y2="1064" stroke="rgb(87,100,180)"></line><line x1="300" y1="1049" x2="300" y2="1079" stroke="rgb(87,100,180)"></line><line x1="300" y1="1049" x2="531" y2="1049" stroke="rgb(89,98,178)"></line><line x1="300" y1="1079" x2="360" y2="1079" stroke="rgb(77,122,197)"></line><line x1="360" y1="1061" x2="360" y2="1097" stroke="rgb(77,122,197)"></line><line x1="360" y1="1061" x2="531" y2="1061" stroke="rgb(95,89,169)"></line><line x1="360" y1="1097" x2="410" y2="1097" stroke="rgb(81,111,189)"></line><line x1="410" y1="1079" x2="410" y2="1115" stroke="rgb(81,111,189)"></line><line x1="410" y1="1079" x2="434" y2="1079" stroke="rgb(89,97,177)"></line><line x1="434" y1="1073" x2="434" y2="1085" stroke="rgb(89,97,177)"></line><line x1="434" y1="1073" x2="531" y2="1073" stroke="rgb(105,81,160)"></line><line x1="434" y1="1085" x2="531" y2="1085" stroke="rgb(107,78,158)"></line><line x1="410" y1="1115" x2="435" y2="1115" stroke="rgb(84,104,184)"></line><line x1="435" y1="1103" x2="435" y2="1127" stroke="rgb(84,104,184)"></line><line x1="435" y1="1103" x2="469" y2="1103" stroke="rgb(97,87,167)"></line><line x1="469" y1="1097" x2="469" y2="1109" stroke="rgb(97,87,167)"></line><line x1="469" y1="1097" x2="531" y2="1097" stroke="rgb(108,77,157)"></line><line x1="469" y1="1109" x2="531" y2="1109" stroke="rgb(111,76,155)"></line><line x1="435" y1="1127" x2="473" y2="1127" stroke="rgb(107,78,157)"></line><line x1="473" y1="1121" x2="473" y2="1133" stroke="rgb(107,78,157)"></line><line x1="473" y1="1121" x2="531" y2="1121" stroke="rgb(101,83,163)"></line><line x1="473" y1="1133" x2="531" y2="1133" stroke="rgb(101,83,163)"></line><line x1="160" y1="1248" x2="353" y2="1248" stroke="rgb(95,89,169)"></line><line x1="353" y1="1183" x2="353" y2="1314" stroke="rgb(95,89,169)"></line><line x1="353" y1="1183" x2="394" y2="1183" stroke="rgb(77,140,195)"></line><line x1="394" y1="1155" x2="394" y2="1212" stroke="rgb(77,140,195)"></line><line x1="394" y1="1155" x2="435" y2="1155" stroke="rgb(77,123,197)"></line><line x1="435" y1="1145" x2="435" y2="1166" stroke="rgb(77,123,197)"></line><line x1="435" y1="1145" x2="531" y2="1145" stroke="rgb(90,96,176)"></line><line x1="435" y1="1166" x2="447" y2="1166" stroke="rgb(78,120,196)"></line><line x1="447" y1="1157" x2="447" y2="1175" stroke="rgb(78,120,196)"></line><line x1="447" y1="1157" x2="531" y2="1157" stroke="rgb(88,99,179)"></line><line x1="447" y1="1175" x2="453" y2="1175" stroke="rgb(79,152,185)"></line><line x1="453" y1="1169" x2="453" y2="1181" stroke="rgb(79,152,185)"></line><line x1="453" y1="1169" x2="531" y2="1169" stroke="rgb(92,93,173)"></line><line x1="453" y1="1181" x2="531" y2="1181" stroke="rgb(88,99,179)"></line><line x1="394" y1="1212" x2="441" y2="1212" stroke="rgb(78,120,196)"></line><line x1="441" y1="1199" x2="441" y2="1226" stroke="rgb(78,120,196)"></line><line x1="441" y1="1199" x2="463" y2="1199" stroke="rgb(77,126,197)"></line><line x1="463" y1="1193" x2="463" y2="1205" stroke="rgb(77,126,197)"></line><line x1="463" y1="1193" x2="531" y2="1193" stroke="rgb(88,98,178)"></line><line x1="463" y1="1205" x2="531" y2="1205" stroke="rgb(89,98,178)"></line><line x1="441" y1="1226" x2="450" y2="1226" stroke="rgb(77,136,197)"></line><line x1="450" y1="1217" x2="450" y2="1235" stroke="rgb(77,136,197)"></line><line x1="450" y1="1217" x2="531" y2="1217" stroke="rgb(90,96,176)"></line><line x1="450" y1="1235" x2="460" y2="1235" stroke="rgb(86,161,174)"></line><line x1="460" y1="1229" x2="460" y2="1241" stroke="rgb(86,161,174)"></line><line x1="460" y1="1229" x2="531" y2="1229" stroke="rgb(91,95,175)"></line><line x1="460" y1="1241" x2="531" y2="1241" stroke="rgb(91,94,174)"></line><line x1="353" y1="1314" x2="360" y2="1314" stroke="rgb(96,171,157)"></line><line x1="360" y1="1268" x2="360" y2="1360" stroke="rgb(96,171,157)"></line><line x1="360" y1="1268" x2="369" y2="1268" stroke="rgb(77,135,197)"></line><line x1="369" y1="1253" x2="369" y2="1284" stroke="rgb(77,135,197)"></line><line x1="369" y1="1253" x2="531" y2="1253" stroke="rgb(83,108,187)"></line><line x1="369" y1="1284" x2="388" y2="1284" stroke="rgb(77,139,197)"></line><line x1="388" y1="1271" x2="388" y2="1298" stroke="rgb(77,139,197)"></line><line x1="388" y1="1271" x2="464" y2="1271" stroke="rgb(81,113,191)"></line><line x1="464" y1="1265" x2="464" y2="1277" stroke="rgb(81,113,191)"></line><line x1="464" y1="1265" x2="531" y2="1265" stroke="rgb(77,121,197)"></line><line x1="464" y1="1277" x2="531" y2="1277" stroke="rgb(83,108,187)"></line><line x1="388" y1="1298" x2="447" y2="1298" stroke="rgb(88,99,179)"></line><line x1="447" y1="1289" x2="447" y2="1307" stroke="rgb(88,99,179)"></line><line x1="447" y1="1289" x2="531" y2="1289" stroke="rgb(77,134,197)"></line><line x1="447" y1="1307" x2="528" y2="1307" stroke="rgb(77,127,197)"></line><line x1="528" y1="1301" x2="528" y2="1313" stroke="rgb(77,127,197)"></line><line x1="528" y1="1301" x2="531" y2="1301" stroke="rgb(218,34,34)"></line><line x1="528" y1="1313" x2="531" y2="1313" stroke="rgb(219,46,35)"></line><line x1="360" y1="1360" x2="375" y2="1360" stroke="rgb(88,99,179)"></line><line x1="375" y1="1331" x2="375" y2="1389" stroke="rgb(88,99,179)"></line><line x1="375" y1="1331" x2="453" y2="1331" stroke="rgb(90,96,176)"></line><line x1="453" y1="1325" x2="453" y2="1337" stroke="rgb(90,96,176)"></line><line x1="453" y1="1325" x2="531" y2="1325" stroke="rgb(78,118,195)"></line><line x1="453" y1="1337" x2="531" y2="1337" stroke="rgb(85,103,183)"></line><line x1="375" y1="1389" x2="422" y2="1389" stroke="rgb(84,105,185)"></line><line x1="422" y1="1355" x2="422" y2="1424" stroke="rgb(84,105,185)"></line><line x1="422" y1="1355" x2="485" y2="1355" stroke="rgb(81,112,190)"></line><line x1="485" y1="1349" x2="485" y2="1361" stroke="rgb(81,112,190)"></line><line x1="485" y1="1349" x2="531" y2="1349" stroke="rgb(79,152,185)"></line><line x1="485" y1="1361" x2="531" y2="1361" stroke="rgb(96,88,168)"></line><line x1="422" y1="1424" x2="425" y2="1424" stroke="rgb(94,169,160)"></line><line x1="425" y1="1373" x2="425" y2="1476" stroke="rgb(94,169,160)"></line><line x1="425" y1="1373" x2="531" y2="1373" stroke="rgb(77,122,197)"></line><line x1="425" y1="1476" x2="428" y2="1476" stroke="rgb(93,168,162)"></line><line x1="428" y1="1395" x2="428" y2="1558" stroke="rgb(93,168,162)"></line><line x1="428" y1="1395" x2="438" y2="1395" stroke="rgb(85,159,176)"></line><line x1="438" y1="1385" x2="438" y2="1406" stroke="rgb(85,159,176)"></line><line x1="438" y1="1385" x2="531" y2="1385" stroke="rgb(83,108,187)"></line><line x1="438" y1="1406" x2="441" y2="1406" stroke="rgb(93,169,161)"></line><line x1="441" y1="1397" x2="441" y2="1415" stroke="rgb(93,169,161)"></line><line x1="441" y1="1397" x2="531" y2="1397" stroke="rgb(79,116,193)"></line><line x1="441" y1="1415" x2="450" y2="1415" stroke="rgb(77,134,197)"></line><line x1="450" y1="1409" x2="450" y2="1421" stroke="rgb(77,134,197)"></line><line x1="450" y1="1409" x2="531" y2="1409" stroke="rgb(93,92,172)"></line><line x1="450" y1="1421" x2="531" y2="1421" stroke="rgb(78,119,196)"></line><line x1="428" y1="1558" x2="435" y2="1558" stroke="rgb(96,171,157)"></line><line x1="435" y1="1488" x2="435" y2="1629" stroke="rgb(96,171,157)"></line><line x1="435" y1="1488" x2="450" y2="1488" stroke="rgb(83,156,180)"></line><line x1="450" y1="1444" x2="450" y2="1532" stroke="rgb(83,156,180)"></line><line x1="450" y1="1444" x2="466" y2="1444" stroke="rgb(80,153,183)"></line><line x1="466" y1="1433" x2="466" y2="1456" stroke="rgb(80,153,183)"></line><line x1="466" y1="1433" x2="531" y2="1433" stroke="rgb(95,89,169)"></line><line x1="466" y1="1456" x2="469" y2="1456" stroke="rgb(93,169,161)"></line><line x1="469" y1="1445" x2="469" y2="1467" stroke="rgb(93,169,161)"></line><line x1="469" y1="1445" x2="531" y2="1445" stroke="rgb(101,84,164)"></line><line x1="469" y1="1467" x2="475" y2="1467" stroke="rgb(79,151,185)"></line><line x1="475" y1="1457" x2="475" y2="1478" stroke="rgb(79,151,185)"></line><line x1="475" y1="1457" x2="531" y2="1457" stroke="rgb(101,83,163)"></line><line x1="475" y1="1478" x2="491" y2="1478" stroke="rgb(77,140,195)"></line><line x1="491" y1="1469" x2="491" y2="1487" stroke="rgb(77,140,195)"></line><line x1="491" y1="1469" x2="531" y2="1469" stroke="rgb(86,101,181)"></line><line x1="491" y1="1487" x2="500" y2="1487" stroke="rgb(79,116,193)"></line><line x1="500" y1="1481" x2="500" y2="1493" stroke="rgb(79,116,193)"></line><line x1="500" y1="1481" x2="531" y2="1481" stroke="rgb(105,80,160)"></line><line x1="500" y1="1493" x2="531" y2="1493" stroke="rgb(89,98,178)"></line><line x1="450" y1="1532" x2="478" y2="1532" stroke="rgb(77,143,193)"></line><line x1="478" y1="1514" x2="478" y2="1550" stroke="rgb(77,143,193)"></line><line x1="478" y1="1514" x2="491" y2="1514" stroke="rgb(77,142,193)"></line><line x1="491" y1="1505" x2="491" y2="1523" stroke="rgb(77,142,193)"></line><line x1="491" y1="1505" x2="531" y2="1505" stroke="rgb(103,82,162)"></line><line x1="491" y1="1523" x2="500" y2="1523" stroke="rgb(81,113,191)"></line><line x1="500" y1="1517" x2="500" y2="1529" stroke="rgb(81,113,191)"></line><line x1="500" y1="1517" x2="531" y2="1517" stroke="rgb(109,77,156)"></line><line x1="500" y1="1529" x2="531" y2="1529" stroke="rgb(105,80,160)"></line><line x1="478" y1="1550" x2="503" y2="1550" stroke="rgb(97,87,167)"></line><line x1="503" y1="1541" x2="503" y2="1559" stroke="rgb(97,87,167)"></line><line x1="503" y1="1541" x2="531" y2="1541" stroke="rgb(79,116,193)"></line><line x1="503" y1="1559" x2="513" y2="1559" stroke="rgb(80,153,183)"></line><line x1="513" y1="1553" x2="513" y2="1565" stroke="rgb(80,153,183)"></line><line x1="513" y1="1553" x2="531" y2="1553" stroke="rgb(80,115,192)"></line><line x1="513" y1="1565" x2="531" y2="1565" stroke="rgb(81,113,190)"></line><line x1="435" y1="1629" x2="441" y2="1629" stroke="rgb(84,158,178)"></line><line x1="441" y1="1596" x2="441" y2="1662" stroke="rgb(84,158,178)"></line><line x1="441" y1="1596" x2="444" y2="1596" stroke="rgb(98,172,154)"></line><line x1="444" y1="1583" x2="444" y2="1610" stroke="rgb(98,172,154)"></line><line x1="444" y1="1583" x2="460" y2="1583" stroke="rgb(77,145,191)"></line><line x1="460" y1="1577" x2="460" y2="1589" stroke="rgb(77,145,191)"></line><line x1="460" y1="1577" x2="531" y2="1577" stroke="rgb(80,115,192)"></line><line x1="460" y1="1589" x2="531" y2="1589" stroke="rgb(81,112,190)"></line><line x1="444" y1="1610" x2="460" y2="1610" stroke="rgb(78,150,186)"></line><line x1="460" y1="1601" x2="460" y2="1619" stroke="rgb(78,150,186)"></line><line x1="460" y1="1601" x2="531" y2="1601" stroke="rgb(82,110,188)"></line><line x1="460" y1="1619" x2="469" y2="1619" stroke="rgb(77,146,191)"></line><line x1="469" y1="1613" x2="469" y2="1625" stroke="rgb(77,146,191)"></line><line x1="469" y1="1613" x2="531" y2="1613" stroke="rgb(81,112,190)"></line><line x1="469" y1="1625" x2="531" y2="1625" stroke="rgb(77,132,197)"></line><line x1="441" y1="1662" x2="453" y2="1662" stroke="rgb(92,168,162)"></line><line x1="453" y1="1637" x2="453" y2="1687" stroke="rgb(92,168,162)"></line><line x1="453" y1="1637" x2="531" y2="1637" stroke="rgb(77,147,190)"></line><line x1="453" y1="1687" x2="460" y2="1687" stroke="rgb(102,175,147)"></line><line x1="460" y1="1667" x2="460" y2="1708" stroke="rgb(102,175,147)"></line><line x1="460" y1="1667" x2="472" y2="1667" stroke="rgb(77,143,193)"></line><line x1="472" y1="1655" x2="472" y2="1679" stroke="rgb(77,143,193)"></line><line x1="472" y1="1655" x2="496" y2="1655" stroke="rgb(77,147,190)"></line><line x1="496" y1="1649" x2="496" y2="1661" stroke="rgb(77,147,190)"></line><line x1="496" y1="1649" x2="531" y2="1649" stroke="rgb(77,128,197)"></line><line x1="496" y1="1661" x2="531" y2="1661" stroke="rgb(77,130,197)"></line><line x1="472" y1="1679" x2="528" y2="1679" stroke="rgb(77,139,197)"></line><line x1="528" y1="1673" x2="528" y2="1685" stroke="rgb(77,139,197)"></line><line x1="528" y1="1673" x2="531" y2="1673" stroke="rgb(227,98,44)"></line><line x1="528" y1="1685" x2="531" y2="1685" stroke="rgb(226,158,57)"></line><line x1="460" y1="1708" x2="491" y2="1708" stroke="rgb(91,167,164)"></line><line x1="491" y1="1697" x2="491" y2="1719" stroke="rgb(91,167,164)"></line><line x1="491" y1="1697" x2="531" y2="1697" stroke="rgb(77,124,197)"></line><line x1="491" y1="1719" x2="493" y2="1719" stroke="rgb(112,180,133)"></line><line x1="493" y1="1709" x2="493" y2="1730" stroke="rgb(112,180,133)"></line><line x1="493" y1="1709" x2="531" y2="1709" stroke="rgb(81,113,191)"></line><line x1="493" y1="1730" x2="520" y2="1730" stroke="rgb(77,147,190)"></line><line x1="520" y1="1721" x2="520" y2="1739" stroke="rgb(77,147,190)"></line><line x1="520" y1="1721" x2="531" y2="1721" stroke="rgb(92,93,173)"></line><line x1="520" y1="1739" x2="522" y2="1739" stroke="rgb(104,176,145)"></line><line x1="522" y1="1733" x2="522" y2="1745" stroke="rgb(104,176,145)"></line><line x1="522" y1="1733" x2="531" y2="1733" stroke="rgb(81,112,190)"></line><line x1="522" y1="1745" x2="531" y2="1745" stroke="rgb(81,112,190)"></line><text x="541" y="10" stroke-width="0" font-style="italic">Hypelate trifoliata</text><text x="541" y="22" stroke-width="0" font-style="italic">Ganophyllum falcatum</text><text x="541" y="34" stroke-width="0" font-style="italic">Zanha golungensis</text><text x="541" y="46" stroke-width="0" font-style="italic">Exothea paniculata</text><text x="541" y="58" stroke-width="0" font-style="italic">Hippobromus pauciflorus</text><text x="541" y="70" stroke-width="0" font-style="italic">Filicium longifolium</text><text x="541" y="82" stroke-width="0" font-style="italic">Filicium decipiens</text><text x="541" y="94" stroke-width="0" font-style="italic">Filicium thouarsianum</text><text x="541" y="106" stroke-width="0" font-style="italic">Euchorium cubense</text><text x="541" y="118" stroke-width="0" font-style="italic">Magonia pubescens</text><text x="541" y="130" stroke-width="0" font-style="italic">Hirania rosea</text><text x="541" y="142" stroke-width="0" font-style="italic">Conchopetalum brachysepalum</text><text x="541" y="154" stroke-width="0" font-style="italic">Arfeuillea arborescens</text><text x="541" y="166" stroke-width="0" font-style="italic">Majidea zanguebarica</text><text x="541" y="178" stroke-width="0" font-style="italic">Llagunoa nitida</text><text x="541" y="190" stroke-width="0" font-style="italic">Boniodendron parviflorum</text><text x="541" y="202" stroke-width="0" font-style="italic">Euphorianthus euneurus</text><text x="541" y="214" stroke-width="0" font-style="italic">Harpullia rhyticarpa</text><text x="541" y="226" stroke-width="0" font-style="italic">Loxodiscus coriaceus</text><text x="541" y="238" stroke-width="0" font-style="italic">Cossinia australiana</text><text x="541" y="250" stroke-width="0" font-style="italic">Diplopeltis huegelii</text><text x="541" y="262" stroke-width="0" font-style="italic">Dodonaea dodecandra</text><text x="541" y="274" stroke-width="0" font-style="italic">Dodonaea viscosa</text><text x="541" y="286" stroke-width="0" font-style="italic">Xanthoceras sorbifolium</text><text x="541" y="298" stroke-width="0" font-style="italic">Billia hippocastanum</text><text x="541" y="310" stroke-width="0" font-style="italic">Handeliodendron bodinieri</text><text x="541" y="322" stroke-width="0" font-style="italic">Aesculus chinensis</text><text x="541" y="334" stroke-width="0" font-style="italic">Aesculus pavia</text><text x="541" y="346" stroke-width="0" font-style="italic">Dipteronia sinensis</text><text x="541" y="358" stroke-width="0" font-style="italic">Dipteronia dyeriana</text><text x="541" y="370" stroke-width="0" font-style="italic">Acer palmatum</text><text x="541" y="382" stroke-width="0" font-style="italic">Acer campestre</text><text x="541" y="394" stroke-width="0" font-style="italic">Acer rubrum</text><text x="541" y="406" stroke-width="0" font-style="italic">Delavaya toxocarpa</text><text x="541" y="418" stroke-width="0" font-style="italic">Ungnadia speciosa</text><text x="541" y="430" stroke-width="0" font-style="italic">Koelreuteria paniculata</text><text x="541" y="442" stroke-width="0" font-style="italic">Stocksia brahuica</text><text x="541" y="454" stroke-width="0" font-style="italic">Paranephelium macrophyllum</text><text x="541" y="466" stroke-width="0" font-style="italic">Paranephelium xestophyllum</text><text x="541" y="478" stroke-width="0" font-style="italic">Sisyrolepis muricata</text><text x="541" y="490" stroke-width="0" font-style="italic">Amesiodendron chinense</text><text x="541" y="502" stroke-width="0" font-style="italic">Pavieasia anamensis</text><text x="541" y="514" stroke-width="0" font-style="italic">Pometia pinnata</text><text x="541" y="526" stroke-width="0" font-style="italic">Blighia sapida</text><text x="541" y="538" stroke-width="0" font-style="italic">Nephelium lappaceum</text><text x="541" y="550" stroke-width="0" font-style="italic">Xerospermum noronhianum</text><text x="541" y="562" stroke-width="0" font-style="italic">Litchi chinensis</text><text x="541" y="574" stroke-width="0" font-style="italic">Dimocarpus longan</text><text x="541" y="586" stroke-width="0" font-style="italic">Otonephelium stipulaceum</text><text x="541" y="598" stroke-width="0" font-style="italic">Cubilia cubili</text><text x="541" y="610" stroke-width="0" font-style="italic">Glenniea africana</text><text x="541" y="622" stroke-width="0" font-style="italic">Radlkofera calodendron</text><text x="541" y="634" stroke-width="0" font-style="italic">Aporrhiza paniculata</text><text x="541" y="646" stroke-width="0" font-style="italic">Laccodiscus ferrugineus</text><text x="541" y="658" stroke-width="0" font-style="italic">Pancovia bijuga</text><text x="541" y="670" stroke-width="0" font-style="italic">Haplocoelopsis africana</text><text x="541" y="682" stroke-width="0" font-style="italic">Placodiscus turbinatus</text><text x="541" y="694" stroke-width="0" font-style="italic">Tristira triptera</text><text x="541" y="706" stroke-width="0" font-style="italic">Zollingeria borneensis</text><text x="541" y="718" stroke-width="0" font-style="italic">Alatococcus siqueirae</text><text x="541" y="730" stroke-width="0" font-style="italic">Deinbollia pinnata</text><text x="541" y="742" stroke-width="0" font-style="italic">Atalaya alata</text><text x="541" y="754" stroke-width="0" font-style="italic">Atalaya capensis</text><text x="541" y="766" stroke-width="0" font-style="italic">Thouinidium decandrum</text><text x="541" y="778" stroke-width="0" font-style="italic">Toulicia reticulata</text><text x="541" y="790" stroke-width="0" font-style="italic">Hornea mauritiana</text><text x="541" y="802" stroke-width="0" font-style="italic">Lepisanthes ramiflora</text><text x="541" y="814" stroke-width="0" font-style="italic">Lepisanthes rubiginosa</text><text x="541" y="826" stroke-width="0" font-style="italic">Sapindus mukorossi</text><text x="541" y="838" stroke-width="0" font-style="italic">Sapindus saponaria</text><text x="541" y="850" stroke-width="0" font-style="italic">Tristiropsis acutangula</text><text x="541" y="862" stroke-width="0" font-style="italic">Blighiopsis pseudostipularis</text><text x="541" y="874" stroke-width="0" font-style="italic">Haplocoelum foliolosum</text><text x="541" y="886" stroke-width="0" font-style="italic">Haplocoelum inoploeum</text><text x="541" y="898" stroke-width="0" font-style="italic">Melicoccus bijugatus</text><text x="541" y="910" stroke-width="0" font-style="italic">Talisia nervosa</text><text x="541" y="922" stroke-width="0" font-style="italic">Dilodendron costaricense</text><text x="541" y="934" stroke-width="0" font-style="italic">Tripterodendron filicifolium</text><text x="541" y="946" stroke-width="0" font-style="italic">Blomia prisca</text><text x="541" y="958" stroke-width="0" font-style="italic">Guindilia trinervis</text><text x="541" y="970" stroke-width="0" font-style="italic">Athyana weinmanniifolia</text><text x="541" y="982" stroke-width="0" font-style="italic">Diatenopteryx sorbifolia</text><text x="541" y="994" stroke-width="0" font-style="italic">Bridgesia incisifolia</text><text x="541" y="1006" stroke-width="0" font-style="italic">Thouinia acuminata</text><text x="541" y="1018" stroke-width="0" font-style="italic">Allophylastrum frutescens</text><text x="541" y="1030" stroke-width="0" font-style="italic">Allophylus arboreus</text><text x="541" y="1042" stroke-width="0" font-style="italic">Allophylus trichodesmus</text><text x="541" y="1054" stroke-width="0" font-style="italic">Thinouia myriantha</text><text x="541" y="1066" stroke-width="0" font-style="italic">Lophostigma plumosum</text><text x="541" y="1078" stroke-width="0" font-style="italic">Cardiospermum halicacabum</text><text x="541" y="1090" stroke-width="0" font-style="italic">Urvillea ulmacea</text><text x="541" y="1102" stroke-width="0" font-style="italic">Serjania communis</text><text x="541" y="1114" stroke-width="0" font-style="italic">Serjania incana</text><text x="541" y="1126" stroke-width="0" font-style="italic">Paullinia pinnata</text><text x="541" y="1138" stroke-width="0" font-style="italic">Paullinia subauriculata</text><text x="541" y="1150" stroke-width="0" font-style="italic">Plagioscyphus jumellei</text><text x="541" y="1162" stroke-width="0" font-style="italic">Tsingya bemarana</text><text x="541" y="1174" stroke-width="0" font-style="italic">Pappea capensis</text><text x="541" y="1186" stroke-width="0" font-style="italic">Stadtmannia oppositifolia</text><text x="541" y="1198" stroke-width="0" font-style="italic">Gereaua perrieri</text><text x="541" y="1210" stroke-width="0" font-style="italic">Macphersonia cauliflora</text><text x="541" y="1222" stroke-width="0" font-style="italic">Camptolepis ramiflora</text><text x="541" y="1234" stroke-width="0" font-style="italic">Beguea apetala</text><text x="541" y="1246" stroke-width="0" font-style="italic">Pseudopteris decipiens</text><text x="541" y="1258" stroke-width="0" font-style="italic">Diploglottis campbellii</text><text x="541" y="1270" stroke-width="0" font-style="italic">Elattostachys apetala</text><text x="541" y="1282" stroke-width="0" font-style="italic">Elattostachys nervosa</text><text x="541" y="1294" stroke-width="0" font-style="italic">Alectryon carinatus</text><text x="541" y="1306" stroke-width="0" font-style="italic">Lecaniodiscus cupanioides</text><text x="541" y="1318" stroke-width="0" font-style="italic">Podonephelium homei</text><text x="541" y="1330" stroke-width="0" font-style="italic">Jagera javanica</text><text x="541" y="1342" stroke-width="0" font-style="italic">Trigonachras postardanjeisin</text><text x="541" y="1354" stroke-width="0" font-style="italic">Guioa rhoifolia</text><text x="541" y="1366" stroke-width="0" font-style="italic">Lepidopetalum perrottetii</text><text x="541" y="1378" stroke-width="0" font-style="italic">Gongrodiscus bilocularis</text><text x="541" y="1390" stroke-width="0" font-style="italic">Sarcopteryx squamosa</text><text x="541" y="1402" stroke-width="0" font-style="italic">Mischarytera lautereriana</text><text x="541" y="1414" stroke-width="0" font-style="italic">Eurycorymbus cavaleriei</text><text x="541" y="1426" stroke-width="0" font-style="italic">Mischocarpus pyriformis</text><text x="541" y="1438" stroke-width="0" font-style="italic">Arytera litoralis</text><text x="541" y="1450" stroke-width="0" font-style="italic">Synima cordierorum</text><text x="541" y="1462" stroke-width="0" font-style="italic">Castanospora alphandii</text><text x="541" y="1474" stroke-width="0" font-style="italic">Cupaniopsis trigonocarpa</text><text x="541" y="1486" stroke-width="0" font-style="italic">Cupaniopsis anacardioides</text><text x="541" y="1498" stroke-width="0" font-style="italic">Cupaniopsis macropetala</text><text x="541" y="1510" stroke-width="0" font-style="italic">Dictyoneura obtusa</text><text x="541" y="1522" stroke-width="0" font-style="italic">Lepiderema ixiocarpa</text><text x="541" y="1534" stroke-width="0" font-style="italic">Lepiderema punctulata</text><text x="541" y="1546" stroke-width="0" font-style="italic">Lepidocupania arcuata</text><text x="541" y="1558" stroke-width="0" font-style="italic">Lepidocupania lepidota</text><text x="541" y="1570" stroke-width="0" font-style="italic">Lepidocupania squamosa</text><text x="541" y="1582" stroke-width="0" font-style="italic">Rhysotoechia flavescens</text><text x="541" y="1594" stroke-width="0" font-style="italic">Rhysotoechia robertsonii</text><text x="541" y="1606" stroke-width="0" font-style="italic">Cnesmocarpon dasyantha</text><text x="541" y="1618" stroke-width="0" font-style="italic">Sarcotoechia cuneata</text><text x="541" y="1630" stroke-width="0" font-style="italic">Storthocalyx chryseus</text><text x="541" y="1642" stroke-width="0" font-style="italic">Pentascyphus thyrsiflorus</text><text x="541" y="1654" stroke-width="0" font-style="italic">Molinaea sessilifolia</text><text x="541" y="1666" stroke-width="0" font-style="italic">Molinaea tolambitou</text><text x="541" y="1678" stroke-width="0" font-style="italic">Tina tamatavensis</text><text x="541" y="1690" stroke-width="0" font-style="italic">Toechima erythrocarpum</text><text x="541" y="1702" stroke-width="0" font-style="italic">Vouarana guianensis</text><text x="541" y="1714" stroke-width="0" font-style="italic">Cupania dentata</text><text x="541" y="1726" stroke-width="0" font-style="italic">Cupania rubiginosa</text><text x="541" y="1738" stroke-width="0" font-style="italic">Cupania hirsuta</text><text x="541" y="1750" stroke-width="0" font-style="italic">Cupania scrobiculata</text></g></svg>